# xmcd CD database file
# Copyright (C) 1993-1998 Ti Kan
# 
# Track frame offsets:
#     182
#     12465
#     25982
#     37020
#     49812
#     61997
#     78495
#     92315
#     106862
#     119435
#     134617
#     146075
#     159905
#     172697
#     183035
#     192795
# 
# Disc length: 2747 seconds
# 
# Revision: 1
# Processed by: cddbd v1.4b41PL1 Copyright (c) Steve Scherf et al.
# Submitted via: DiscPlay 4.0.4
# 
DISCID=ca0ab910
DTITLE=Sandie Shaw - The Sandie Shaw Collection
DYEAR=1900
DGENRE=
TTITLE0=Homeward Bound
TTITLE1=Maple Village
TTITLE2=Voice In The Crowd
TTITLE3=Make It Go
TTITLE4=Show Me
TTITLE5=Maybe I'm Amazed
TTITLE6=Think It All Over
TTITLE7=(Get Your Kicks On) Route 66
TTITLE8=Scarabrough Fair
TTITLE9=Right To Cry
TTITLE10=The Way I Remember Him
TTITLE11=You've Been Seeing Her Again
TTITLE12=Turn On The Sunshine
TTITLE13=The Same Things
TTITLE14=That's Why
TTITLE15=(I Can't Get No) Satisfaction
EXTD=
EXTT0=
EXTT1=
EXTT2=
EXTT3=
EXTT4=
EXTT5=
EXTT6=
EXTT7=
EXTT8=
EXTT9=
EXTT10=
EXTT11=
EXTT12=
EXTT13=
EXTT14=
EXTT15=
PLAYORDER=
